<?xml version="1.0" encoding="UTF-8"?>
<svg data-name="Ebene 1" viewBox="0 0 800 800" xmlns="http://www.w3.org/2000/svg">
 <defs>
  <clipPath id="d">
   <circle cx="400" cy="400" r="400" fill="none"/>
  </clipPath>
  <linearGradient id="c" x1="376.73" x2="158.72" y1="411.73" y2="629.73" gradientUnits="userSpaceOnUse">
   <stop offset="0"/>
   <stop stop-opacity="0" offset="1"/>
  </linearGradient>
 </defs>
 <g clip-path="url(#d)">
  <circle cx="400" cy="400" r="400" fill="#1c8adb"/>
  <path d="m239.54 779.51 196.02-196.02a12.93 12.93 0 0 0 4.4794 -9.5748c5.3423-5.5232 6.14-11.002 3.0385-16.443 3.2461-4.7293 3.1881-9.1324 0-13.226 3.6262-6.0723 2.81-10.106 0-13.226 2.96-3.93 3.1979-8.8065 2.1746-14.121l5.6571-5.6691a27.12 27.12 0 0 0 7.0031 -10.862c4.8258-66.489 58.446-91.69 61.127-162.47 0-86.864-59.518-130.97-119.04-131.3a118.26 118.26 0 0 0 -73.335 25.653 113.31 113.31 0 0 0 -9.7075 8.6341l-298.27 298.27c36.484 100.36 110.92 180.02 220.85 240.35z" fill="url(#c)" opacity=".42"/>
  <path d="m400 206.6c-59.518 0.3351-119.04 44.437-119.04 131.3 2.681 70.778 56.301 95.979 61.127 162.47 2.09 6.2686 6.6266 11.476 12.874 15.493-1.2571 5.7172-1.191 10.975 1.9606 15.159-2.81 3.12-3.6262 7.1539 0 13.226-3.1881 4.0938-3.2461 8.4969 0 13.226-3.1016 5.4411-2.3039 10.92 3.0384 16.443 0 25.976 80.072 25.976 80.072 0 5.3423-5.5232 6.14-11.002 3.0384-16.443 3.2461-4.7293 3.1881-9.1324 0-13.226 3.6262-6.0723 2.81-10.106 0-13.226 3.1516-4.1849 3.2177-9.4422 1.9606-15.159 6.2476-4.017 10.785-9.2245 12.874-15.493 4.8258-66.488 58.446-91.69 61.127-162.47-1e-4 -86.864-59.518-130.97-119.04-131.3z" fill="#fff"/>
 </g>
</svg>
