<?xml version="1.0" standalone="no"?>
<!DOCTYPE svg PUBLIC "-//W3C//DTD SVG 20010904//EN"
 "http://www.w3.org/TR/2001/REC-SVG-20010904/DTD/svg10.dtd">
<svg version="1.0" xmlns="http://www.w3.org/2000/svg"
 width="512.000000pt" height="512.000000pt" viewBox="0 0 512.000000 512.000000"
 preserveAspectRatio="xMidYMid meet">

<g transform="translate(0.000000,512.000000) scale(0.100000,-0.100000)"
fill="#000000" stroke="none">
<path d="M307 5109 c-110 -26 -218 -116 -270 -227 l-32 -67 0 -690 c0 -639 1
-694 18 -742 27 -76 88 -156 157 -201 111 -75 66 -72 1259 -72 584 0 1061 -1
1061 -2 0 -2 -9 -32 -20 -66 -11 -35 -20 -91 -20 -123 0 -91 -27 -205 -69
-294 -91 -190 -228 -313 -426 -381 -73 -25 -96 -28 -257 -32 -98 -2 -178 -7
-178 -9 0 -3 15 -22 33 -42 18 -20 44 -62 57 -94 l25 -59 130 5 c153 6 263 34
389 100 292 151 468 425 494 769 8 91 13 113 35 147 33 50 91 81 152 81 165 0
224 -140 212 -503 -6 -170 -22 -265 -73 -422 -26 -79 -26 -82 -10 -117 10 -20
25 -40 34 -45 9 -4 196 -10 414 -13 383 -5 398 -6 425 -26 90 -67 87 -202 -5
-257 -27 -15 -65 -17 -381 -17 -394 0 -408 -2 -437 -63 -20 -42 -13 -79 21
-113 l24 -24 458 0 c430 0 461 -2 500 -20 46 -20 79 -64 89 -117 9 -46 -30
-121 -76 -148 -33 -19 -57 -20 -508 -25 l-474 -5 -19 -24 c-31 -38 -34 -70
-13 -110 31 -57 48 -60 437 -60 314 -1 352 -3 379 -18 92 -55 95 -191 6 -255
-33 -23 -35 -23 -403 -28 -203 -3 -378 -9 -387 -13 -25 -13 -50 -74 -43 -106
3 -16 17 -39 31 -52 25 -24 28 -24 299 -29 256 -5 275 -6 301 -26 48 -35 66
-67 66 -118 0 -53 -23 -99 -65 -130 -28 -21 -33 -21 -796 -24 -852 -3 -769 -8
-956 63 -49 19 -96 28 -160 32 l-90 5 -24 -56 c-13 -31 -39 -76 -57 -99 l-34
-42 133 -6 c122 -5 139 -8 225 -43 52 -20 116 -41 144 -46 30 -6 369 -10 813
-10 747 0 764 0 831 21 57 18 77 31 129 82 84 84 109 148 103 267 -3 51 -11
97 -20 115 l-16 31 54 28 c70 37 137 112 164 184 26 69 29 177 6 241 -21 57
-21 55 18 69 52 19 132 96 160 155 56 115 55 225 -2 330 -31 58 -109 131 -158
149 -38 13 -39 15 -23 55 34 88 29 206 -13 287 -33 64 -103 131 -171 162 l-62
29 -323 3 c-319 3 -323 3 -316 24 49 156 68 465 40 658 -10 63 -26 138 -36
167 l-18 53 391 0 392 0 185 -186 c102 -102 198 -192 214 -201 37 -19 86 -10
117 23 23 25 24 32 27 195 l3 169 110 0 c64 0 139 7 180 16 126 29 231 120
283 247 21 51 21 64 24 712 3 483 0 675 -9 715 -26 124 -109 227 -227 283
l-67 32 -2235 2 c-1278 0 -2251 -3 -2273 -8z m4516 -218 c21 -13 50 -42 65
-64 l27 -41 3 -650 c3 -729 5 -704 -68 -770 -21 -19 -56 -39 -77 -45 -21 -6
-118 -11 -216 -11 l-179 0 -29 -29 c-28 -28 -29 -33 -29 -125 0 -53 -3 -96 -8
-96 -4 0 -55 48 -112 108 -58 59 -116 115 -130 125 -23 16 -139 17 -1855 17
-1246 0 -1842 3 -1868 11 -49 13 -105 63 -128 114 -17 37 -19 82 -19 675 0
417 4 648 11 673 13 47 77 113 121 126 21 6 867 9 2243 8 l2210 -2 38 -24z"/>
<path d="M1110 1892 c-51 -25 -73 -106 -54 -201 16 -80 108 -109 165 -52 28
28 29 34 29 116 0 99 -9 121 -55 141 -43 18 -43 18 -85 -4z"/>
</g>
</svg>
